<svg xmlns="http://www.w3.org/2000/svg" width="2000" height="2000" viewBox="0 0 2000 2000">
  <defs>
    <style>
      .cls-1 {
        fill: #ebe8e8;
        fill-rule: evenodd;
      }
    </style>
  </defs>
  <path id="MB" class="cls-1" d="M73.669,1519.62q4.359,0,32.078-11.65,27.7-11.67,61.25-11.67,23.32,0,58.328,11.65,29.156,11.67,49.594,11.67a90.526,90.526,0,0,0,52.484-16.03q23.343-16.035,55.422-59.79,17.484-24.81,17.5-37.93,0-14.58-11.656-14.57-5.861,0-22.61,8.01-16.781,8.01-38.64,8.02-24.8,0-52.5-10.21v-2.92q11.648-10.2,19.671-37.17t9.485-31.36L393.044,883.8l1.453,1.453q8.742,46.688,28.437,131.251,19.688,84.585,29.891,128.33,21.867,99.18,28.437,148.03T499.5,1446.7c0,5.85.718,10.45,2.187,13.86q2.179,5.115,6.563,5.11,16.03,0,59.062-51.05a790.543,790.543,0,0,0,75.11-105q40.827-105,106.453-233.32Q814.5,947.95,875.747,850.249H877.2q-10.22,91.875-18.953,158.231-8.766,66.36-32.078,320.1l-2.922,30.62q-1.453,17.5-8.016,25.53t-24.062,21.14l-26.25,20.43q-46.687,36.465-46.672,75.82,0,17.52,10.2,17.5,5.835,0,32.812-11.65a143.532,143.532,0,0,1,57.61-11.67,192.692,192.692,0,0,1,46.656,5.82q23.343,5.835,27.719,7.3,36.446,10.215,56.875,10.2,55.405,0,113.748-75.82,17.49-18.975,17.5-37.93c0-5.82-.73-9.72-2.19-11.65s-4.14-2.92-8.01-2.92q-5.865,0-26.99,8.01a116.793,116.793,0,0,1-41.56,8.02q-29.177,0-58.326-14.58v-1.45q13.125-11.685,22.593-34.27t10.938-50.33q17.484-141.45,36.465-354.373,7.275-83.109,15.3-160.406t18.23-140q18.975-135.61,48.13-204.172,29.16-68.532,84.59-94.8a221.461,221.461,0,0,1,59.78-17.5q30.615-4.359,78.75-5.828,40.83,0,77.3-29.157,36.45-29.156,36.45-59.8,0-16.032-11.65-16.047c-2.92,0-6.81.984-11.67,2.922q-7.32,2.906-17.5,5.828-16.065,5.835-49.58,5.828-65.625,0-115.22,7.3a307.648,307.648,0,0,0-93.33,29.172Q1068.245,307.756,1020.84,369q-47.39,61.264-105.718,180.828-10.22,23.343-27.7,58.344-33.562,72.913-82.407,166.968Q756.169,869.218,605.95,1140.45q-2.907-21.87-13.125-51.03l-45.2-193.968q-29.179-126.867-42.3-197.594T492.2,573.171q0-27.7,2.922-65.625-10.219,0-36.453,2.906-52.5,4.383-65.625,4.375a539.9,539.9,0,0,1-70-4.375q-37.923-2.907-55.422-2.906-86.062,0-142.922,43.015Q67.817,593.593,53.247,667.952q-2.93,8.766-2.922,23.344T63.45,705.874q5.836,0,13.125-6.563a103.58,103.58,0,0,0,14.594-16.765q23.32-30.61,51.765-42.3,28.429-11.673,70.735-11.672a311.782,311.782,0,0,1,61.25,5.844q23.319,2.905,30.625,2.906h8.75L181.575,1276.08q-11.671,51.045-19.688,75.84t-18.234,37.91q-10.219,13.125-33.531,36.47-23.344,20.4-34.266,37.9a70.193,70.193,0,0,0-10.937,37.92q0,17.52,8.75,17.5h0Zm1133.111,0q10.2,0,32.08-7.29,51.045-14.58,78.75-14.58,18.96,0,91.87,8.75,102.105,13.125,137.1,13.12,94.785,0,184.47-40.09,89.67-40.1,146.56-112.3,56.865-72.18,56.87-161.15,0-69.99-38.64-129.78T1785.73,969.827q164.79-97.687,164.8-256.656,0-107.907-78.03-164.063t-220.92-56.156q-110.865,0-203.46,32.812t-153.84,87.5q-61.26,54.7-87.5,117.407-7.3,24.8-7.3,30.625,0,18.96,16.05,18.953,10.2,0,19.69-7.282,9.465-7.288,28.44-27.718a537.386,537.386,0,0,1,133.43-102.078q75.105-40.829,194.69-40.844,96.24,0,141.45,34.281t45.22,108.641q0,74.39-38.65,130.531T1636.98,946.5H1515.95l21.88-151.672q8.745-55.407,21.87-82.391t13.13-35.734q0-14.579-23.35-14.578-35.01,0-70,18.234a212.016,212.016,0,0,0-60.51,46.656q-25.53,28.453-29.89,56.157l-80.22,533.749q-5.835,33.54-16.77,49.58t-40.11,39.37q-27.69,21.9-43.75,43.75a81.847,81.847,0,0,0-16.03,49.58q0,20.445,14.58,20.42h0Zm358.75-126.87a591.975,591.975,0,0,1-69.26-4.38q-37.2-4.35-57.61-10.2l-1.46-1.47a126.391,126.391,0,0,0,15.3-28.42q5.115-13.845,8.03-38.66l36.45-252.29h151.68q116.67,64.17,116.67,182.29,0,75.855-51.05,114.49t-148.75,38.64h0Z"/>
</svg>
